PathFileType	4	(X/Y/Z)	Run_500 02
DataRate	CameraRate	NumFrames	NumMarkers	Units	OrigDataRate	OrigDataStartFrame	OrigNumFrames
120	120	4	42	mm	120	190	128
Frame#	Time	LASI			RASI			LPSI			RPSI			RTH1			RTH2			RTH3			LTH1			LTH2			LTH3			RTB1			RTB2			RTB3			LTB1			LTB2			LTB3			RCAL			RTOE			RMT5			LCAL			LTOE			LMT5			LACR			RACR			CLAV			C7			RUA1			RUA2			RUA3			RLEL			RMEL			LUA1			LUA2			LUA3			LLEL			LMEL			RFAsuperior			RFAradius			RFAulna			LFAsuperior			LFAradius			LFAulna			
		X1	Y1	Z1	X2	Y2	Z2	X3	Y3	Z3	X4	Y4	Z4	X5	Y5	Z5	X6	Y6	Z6	X7	Y7	Z7	X8	Y8	Z8	X9	Y9	Z9	X10	Y10	Z10	X11	Y11	Z11	X12	Y12	Z12	X13	Y13	Z13	X14	Y14	Z14	X15	Y15	Z15	X16	Y16	Z16	X17	Y17	Z17	X18	Y18	Z18	X19	Y19	Z19	X20	Y20	Z20	X21	Y21	Z21	X22	Y22	Z22	X23	Y23	Z23	X24	Y24	Z24	X25	Y25	Z25	X26	Y26	Z26	X27	Y27	Z27	X28	Y28	Z28	X29	Y29	Z29	X30	Y30	Z30	X31	Y31	Z31	X32	Y32	Z32	X33	Y33	Z33	X34	Y34	Z34	X35	Y35	Z35	X36	Y36	Z36	X37	Y37	Z37	X38	Y38	Z38	X39	Y39	Z39	X40	Y40	Z40	X41	Y41	Z41	X42	Y42	Z42	

190	1.675	775.639488	969.9696729999999	-475.742734	794.506834	956.0928249999999	-233.949398	607.114134	989.540483	-380.054135	619.684857	989.896895	-292.972213	740.309022	773.465624	-189.02887	786.871109	650.811358	-199.840947	705.984422	546.091898	-183.974367	759.2391730000001	833.113387	-524.281912	855.328589	749.558147	-503.965529	844.739525	599.450026	-495.25626	581.6591	478.631636	-254.267045	544.764855	551.919893	-206.895446	448.130658	600.3682250000001	-279.934074	913.504293	378.645855	-397.131221	853.69667	275.780493	-439.531568	851.0398	199.41511	-358.824668	420.97875	761.052253	-305.251781	258.18359	613.409461	-286.407958	269.660294	661.500827	-204.808773	710.541709	102.162674	-353.368644	927.600307	76.25005299999999	-343.557639	899.568008	61.677041	-432.647593	754.916922	1419.344593	-547.950321	808.45321	1431.80597	-188.618707	882.965837	1369.721531	-357.051412	751.739405	1466.161046	-371.998065	777.8588109999999	1332.444143	-117.919245	784.551621	1260.098282	-115.964908	695.7081899999999	1265.964227	-63.005358	719.021037	1180.030868	-24.025898	654.348083	1160.549521	-82.133864	703.318004	1376.040648	-605.750413	639.3767329999999	1309.393649	-603.2283	665.867781	1319.833342	-671.90454	618.0343360000001	1253.881812	-747.652754	612.86919	1170.293411	-710.093801	790.445969	1144.730205	-56.025978	903.46915	1081.969801	-167.230697	868.780662	1029.841547	-137.368898	685.041544	1275.29555	-754.855822	857.631198	1274.073248	-702.194666	855.494953	1237.190489	-759.709963	
191	1.683333	769.643367	969.059779	-478.501108	790.926564	952.395668	-235.476569	602.753595	989.525441	-375.728933	616.5555890000001	990.412247	-289.612605	746.253056	771.2233649999999	-189.036764	802.356759	652.350287	-200.199709	729.799833	543.939767	-181.099249	750.180297	832.344992	-524.844218	844.164847	747.793458	-504.807864	827.8659290000001	595.115006	-495.249238	611.340743	475.222231	-252.50805	574.762416	547.085986	-203.353945	477.614864	595.078501	-276.730167	889.164786	372.186146	-399.120471	822.976431	272.765137	-440.75235	816.912378	196.731147	-359.66327	447.508392	757.29971	-300.439992	287.239302	606.785673	-283.618087	298.411409	653.484515	-201.187025	670.181435	103.078318	-353.97987	886.850377	75.465913	-343.647223	858.51546	61.14128	-432.927897	756.036645	1415.005274	-550.229604	805.2340809999999	1429.05042	-188.641468	883.352123	1365.558973	-354.561702	752.744377	1464.099273	-374.648285	770.744023	1330.72263	-118.200505	774.767481	1258.32452	-116.292132	684.2267000000001	1265.934072	-67.220321	704.247382	1180.14482	-25.085428	642.538357	1161.010962	-85.560952	706.277388	1367.641899	-608.973262	647.378595	1295.495745	-606.264775	674.044757	1308.323028	-675.095852	633.650742	1239.379372	-751.47606	631.19067	1155.944149	-714.450619	775.237536	1140.009569	-52.565004	890.053442	1064.377905	-152.863583	850.507347	1016.236303	-121.913731	700.435297	1263.659654	-755.336469	869.383256	1270.247136	-695.826129	871.551679	1233.729258	-753.238952	
192	1.691667	763.610492	969.123651	-480.893831	787.140758	951.158148	-236.351907	599.307348	990.818596	-372.931842	613.589559	991.989922	-287.331593	752.364121	770.679151	-188.965692	819.3793010000001	656.737923	-201.64999	755.252401	544.777325	-179.103672	741.5738679999999	831.660663	-524.869802	830.502394	743.541551	-505.619149	805.828546	589.241431	-493.779968	642.515143	473.230715	-251.547997	605.133323	542.783545	-200.509647	506.336785	588.520585	-273.977148	862.016626	363.596704	-401.195616	790.3241400000001	267.423923	-441.168322	780.666125	192.707122	-360.259593	469.097684	752.260989	-296.140372	315.523667	594.9218090000001	-280.769799	325.697357	640.30315	-197.458205	629.279794	104.016542	-355.021495	845.765666	74.430498	-343.721603	817.099484	60.260432	-433.479411	757.886408	1411.750317	-552.476107	801.934662	1427.550961	-188.745557	882.924518	1363.244697	-352.410874	753.472891	1463.249918	-376.497823	763.604091	1330.401421	-118.369332	765.616308	1258.120047	-116.227995	673.003164	1267.424072	-71.645233	689.682143	1182.266897	-26.351136	630.739122	1163.244402	-89.052041	710.51725	1360.808175	-611.858784	656.898993	1283.669557	-607.703233	682.901473	1298.269679	-676.910527	650.425072	1226.230289	-753.767812	650.392695	1143.277445	-716.883269	759.89532	1137.53497	-49.732656	874.82674	1050.070198	-138.7415	830.642754	1005.841281	-107.643836	716.973719	1252.996058	-754.394123	881.705239	1266.568159	-688.181162	887.896341	1230.230427	-745.49775	
193	1.7	757.901531	969.774235	-482.75505	783.512935	952.086758	-236.653244	596.366166	993.186958	-371.97097	610.555845	993.738261	-286.441965	758.66967	772.220324	-188.849385	837.195346	664.4726920000001	-204.054693	781.495785	549.0831920000001	-178.160932	732.987661	831.074806	-524.780879	814.903236	736.896621	-506.884778	781.409715	583.632027	-492.153338	674.316864	473.138622	-251.280482	634.729563	539.703845	-198.810448	533.478285	581.248344	-271.943222	832.074775	354.775955	-402.402633	756.315969	261.583159	-440.902587	742.471357	188.831863	-360.455296	485.50915	745.397983	-292.497997	342.813212	578.111345	-277.910465	351.349827	622.427962	-193.795944	587.703978	104.978102	-356.066108	804.002791	73.61539	-343.896667	775.089156	59.694493	-434.127766	760.698378	1409.624557	-554.367893	798.401073	1427.314916	-188.625147	881.75809	1362.734568	-350.629571	753.51369	1463.253264	-377.290988	756.142084	1331.650405	-118.254303	756.627683	1259.503606	-115.412453	661.852955	1270.725782	-75.869252	675.093124	1186.362011	-27.396025	618.807754	1167.389033	-92.323488	716.260627	1355.430017	-614.096495	667.255433	1274.691454	-607.956584	692.432039	1289.91319	-677.426586	667.73884	1214.713249	-754.362398	669.79955	1132.636037	-716.862661	744.185348	1137.175386	-46.761582	858.353527	1039.807972	-125.191311	809.8958710000001	999.05174	-95.12911200000001	734.137014	1243.509427	-752.205516	894.361067	1263.425234	-679.342224	904.331743	1226.897231	-736.443588	
